<?xml version="1.0" encoding="UTF-8"?>
<svg xmlns="http://www.w3.org/2000/svg" xmlns:xlink="http://www.w3.org/1999/xlink" width="30px" height="30px" viewBox="0 0 30 30" version="1.1">
<g id="surface1">
<path style="fill-rule:nonzero;fill:rgb(100%,100%,100%);fill-opacity:1;stroke-width:0.413;stroke-linecap:butt;stroke-linejoin:miter;stroke:rgb(0%,0%,0%);stroke-opacity:1;stroke-miterlimit:4;" d="M 127.139583 0 C 113.803125 0 101.542187 7.367318 95.304167 19.144271 C 89.01237 30.867448 89.765234 45.171875 97.186328 56.195964 L 112.620052 40.816016 C 112.082292 39.310286 111.813411 37.697005 111.867188 36.083724 C 111.867188 27.640885 118.642969 20.865104 127.085807 20.865104 C 135.47487 20.865104 142.304427 27.640885 142.304427 36.083724 C 142.304427 44.472786 135.47487 51.302344 127.085807 51.302344 C 125.472526 51.302344 123.859245 51.033464 122.29974 50.549479 L 106.919792 65.929427 C 119.772266 74.58737 136.711719 74.157161 149.026432 64.746354 C 161.341146 55.389323 166.288542 39.202734 161.341146 24.521875 C 156.39375 9.841016 142.627083 0 127.139583 0 Z M 127.139583 0 " transform="matrix(0.0726392,0,0,0.0726392,5.702179,0)"/>
<path style="fill-rule:nonzero;fill:rgb(100%,100%,100%);fill-opacity:1;stroke-width:0.413;stroke-linecap:butt;stroke-linejoin:miter;stroke:rgb(0%,0%,0%);stroke-opacity:1;stroke-miterlimit:4;" d="M 112.78138 105.132161 C 112.78138 92.925 108.855729 81.094271 101.542187 71.307031 L 81.5375 91.311719 C 87.775521 102.766016 85.570703 116.962891 76.052344 125.94349 L 86.915104 152.508854 C 103.047917 142.130078 112.78138 124.276432 112.78138 105.132161 Z M 112.78138 105.132161 " transform="matrix(0.0726392,0,0,0.0726392,5.702179,0)"/>
<path style="fill-rule:nonzero;fill:rgb(100%,100%,100%);fill-opacity:1;stroke-width:0.413;stroke-linecap:butt;stroke-linejoin:miter;stroke:rgb(0%,0%,0%);stroke-opacity:1;stroke-miterlimit:4;" d="M 56.908073 133.794792 L 56.370312 133.794792 C 44.109375 133.794792 33.192839 125.997266 29.213411 114.381641 C 25.233984 102.766016 29.105859 89.913542 38.785547 82.438672 C 48.465234 74.910026 61.855469 74.372266 72.126693 81.094271 L 91.916276 61.304687 C 72.664453 45.709635 45.453776 44.472786 24.911328 58.347005 C 4.36888 72.167448 -4.773047 97.81862 2.486719 121.533854 C 9.692708 145.249089 31.579557 161.489453 56.370312 161.489453 C 60.188411 161.489453 64.00651 161.113021 67.770833 160.360156 Z M 56.908073 133.794792 " transform="matrix(0.0726392,0,0,0.0726392,5.702179,0)"/>
<path style="fill-rule:nonzero;fill:rgb(100%,100%,100%);fill-opacity:1;stroke-width:0.413;stroke-linecap:butt;stroke-linejoin:miter;stroke:rgb(0%,0%,0%);stroke-opacity:1;stroke-miterlimit:4;" d="M 127.892448 156.757161 C 115.36263 156.757161 102.940365 158.585547 90.948307 162.188542 L 106.758464 200.907292 C 113.695573 199.186458 120.740234 198.326042 127.892448 198.326042 C 169.03112 198.326042 204.469531 227.41888 212.535937 267.858464 C 220.548568 308.244271 198.930599 348.683854 160.857161 364.440234 C 122.8375 380.196615 78.95625 366.860156 56.047656 332.604818 C 33.192839 298.349479 37.65625 252.747396 66.802865 223.600781 C 72.879557 217.577865 79.816667 212.415365 87.399089 208.382161 L 71.696484 169.770964 C 13.295703 198.379818 -14.398958 266.298958 7.434115 327.603646 C 29.213411 388.908333 93.529557 424.077865 156.877734 409.397005 C 220.279687 394.716146 262.547656 334.809635 255.180339 270.170833 C 247.759245 205.532031 193.06901 156.757161 128 156.757161 Z M 127.892448 156.757161 " transform="matrix(0.0726392,0,0,0.0726392,5.702179,0)"/>
</g>
</svg>
